<svg xmlns="http://www.w3.org/2000/svg" viewBox="0 0 400 600" width="400" height="600" role="img" aria-label="Twenty Thousand Leagues Under the Seas by Jules Verne"><rect width="400" height="600" fill="#483A1E"/><g stroke="#B4D666" stroke-width="14" opacity=".55"><line x1="-200" y1="600" x2="100" y2="300"/><line x1="-140" y1="600" x2="160" y2="300"/><line x1="-80" y1="600" x2="220" y2="300"/><line x1="-20" y1="600" x2="280" y2="300"/><line x1="40" y1="600" x2="340" y2="300"/><line x1="100" y1="600" x2="400" y2="300"/><line x1="160" y1="600" x2="460" y2="300"/><line x1="220" y1="600" x2="520" y2="300"/><line x1="280" y1="600" x2="580" y2="300"/><line x1="340" y1="600" x2="640" y2="300"/><line x1="400" y1="600" x2="700" y2="300"/><line x1="460" y1="600" x2="760" y2="300"/></g><rect x="0" y="300" width="400" height="6" fill="#B4D666"/><rect x="0" y="0" width="14" height="600" fill="#000" opacity=".22"/><text x="40" y="58" font-family="Segoe UI, Arial, sans-serif" font-size="15" letter-spacing="3" fill="#B4D666">SCIENCE FICTION</text><text x="40" y="146" font-family="Georgia, 'Palatino Linotype', serif" font-size="36" font-weight="700" fill="#F6F0E4"><tspan x="40" dy="0">Twenty Thousand</tspan><tspan x="40" dy="39">Leagues Under the</tspan><tspan x="40" dy="39">Seas</tspan></text><text x="40" y="283" font-family="Segoe UI, Arial, sans-serif" font-size="20" fill="#F6F0E4" opacity=".85">Jules Verne</text></svg>