<svg xmlns="http://www.w3.org/2000/svg" viewBox="0 0 220 140" width="220" height="140">
  <!-- An almost empty shelf: two leaning books and a small plant, original illustration -->
  <rect x="20" y="112" width="180" height="8" rx="3" fill="#2A3140"/>
  <rect x="30" y="120" width="8" height="14" fill="#2A3140"/>
  <rect x="182" y="120" width="8" height="14" fill="#2A3140"/>
  <rect x="58" y="50" width="20" height="62" rx="3" fill="#E5A93D"/>
  <rect x="62" y="60" width="12" height="3" rx="1.5" fill="#1A1204" opacity=".5"/>
  <g transform="rotate(-16 100 112)">
    <rect x="84" y="58" width="18" height="54" rx="3" fill="#3FB6A8"/>
    <rect x="88" y="68" width="10" height="3" rx="1.5" fill="#06201D" opacity=".5"/>
  </g>
  <path d="M150 112h22l-3-20h-16z" fill="#A9A398"/>
  <path d="M161 92c-2-14 4-22 12-26-2 10-6 18-12 26z" fill="#3FB6A8"/>
  <path d="M160 92c-6-10-6-20-2-28 4 10 5 19 2 28z" fill="#5ccabd"/>
  <path d="M160 92c-8-6-14-8-20-8 6 6 12 9 20 8z" fill="#3FB6A8"/>
  <circle cx="130" cy="36" r="2" fill="#F2EEE6" opacity=".6"/>
  <circle cx="44" cy="30" r="1.5" fill="#F2EEE6" opacity=".4"/>
  <circle cx="186" cy="48" r="1.5" fill="#F2EEE6" opacity=".5"/>
</svg>
